<svg xmlns="http://www.w3.org/2000/svg" viewBox="0 0 32 32" fill="none">
  <rect width="32" height="32" rx="6" fill="#3b82f6"/>
  
  <!-- Spade -->
  <path d="M8 12c0-1.5 1.5-3 3-3s3 1.5 3 3-1.5 3-3 3-3-1.5-3-3z" fill="white"/>
  <path d="M11 9c-0.5 0-1 0.5-1 1s0.5 1 1 1 1-0.5 1-1-0.5-1-1-1z" fill="#3b82f6"/>
  
  <!-- Heart -->
  <path d="M18 12c0-1.5 1.5-3 3-3s3 1.5 3 3-1.5 3-3 3-3-1.5-3-3z" fill="#ef4444"/>
  <path d="M21 9c-0.5 0-1 0.5-1 1s0.5 1 1 1 1-0.5 1-1-0.5-1-1-1z" fill="white"/>
  
  <!-- Diamond -->
  <path d="M8 20c0-1.5 1.5-3 3-3s3 1.5 3 3-1.5 3-3 3-3-1.5-3-3z" fill="#10b981"/>
  <path d="M11 17c-0.5 0-1 0.5-1 1s0.5 1 1 1 1-0.5 1-1-0.5-1-1-1z" fill="white"/>
  
  <!-- Club -->
  <path d="M18 20c0-1.5 1.5-3 3-3s3 1.5 3 3-1.5 3-3 3-3-1.5-3-3z" fill="#8b5cf6"/>
  <path d="M21 17c-0.5 0-1 0.5-1 1s0.5 1 1 1 1-0.5 1-1-0.5-1-1-1z" fill="white"/>
</svg>
